<svg id="Logo_-_Vert" data-name="Logo - Vert" xmlns="http://www.w3.org/2000/svg" width="282.817" height="49.811" viewBox="0 0 282.817 49.811">
  <g id="Group_23" data-name="Group 23" transform="translate(3.159)">
    <path id="Path_1" data-name="Path 1" d="M0,.074v14l2.736.127V8.6h5.79L8.334,41.3H5.79l-.127,2.735H20.041V41.3H16.605L16.414,8.727h5.917v5.344l2.737.127V.074Z" transform="translate(0 -0.01)" fill="#54c877"/>
    <path id="Path_2" data-name="Path 2" d="M42.81,8.727l5.853.063L50.19,23.614l-9.1.254ZM33.584.074,33.457,2.81h2.291L29.449,41.3H26.9l-.127,2.735H41.155V41.3h-2.29l1.4-8.908,11.26-.254L52.861,41.3H50.126L50,44.037h14.57V41.3H61.7L55.979,2.81h2.864V.074Z" transform="translate(-3.617 -0.01)" fill="#54c877"/>
    <path id="Path_3" data-name="Path 3" d="M74.722,0,74.15,43.963H98.962v2.163H101.7V32.384l-2.736-.127v2.99l-16.541-.254.253-26.785H93.745l-.126,4.517h-2.8l-.127,2.737h12.533V12.724h-1.463L101.825,0Z" transform="translate(-10.017 0)" fill="#54c877"/>
    <path id="Path_4" data-name="Path 4" d="M122.239,8.609l10.815.063.637,27.167H121.73ZM114.031.147l-1.336,43.9H142.98L141.326.147Z" transform="translate(-15.224 -0.02)" fill="#54c877"/>
  </g>
  <g id="Group_24" data-name="Group 24" transform="translate(153.474)">
    <path id="Path_5" data-name="Path 5" d="M.127.074.191,2.81H2.8L2.736,41.3H0l.063,2.735h22.65v-.063l1.145.063V28.258H21.123V35.7l-10.053-.19V2.81h3.5V.074Z" transform="translate(0 -0.01)" fill="#54c877"/>
    <path id="Path_6" data-name="Path 6" d="M43.307,8.609l10.817.063.636,27.167H42.8ZM35.1.147l-1.335,43.9H64.047L62.394.147Z" transform="translate(-4.561 -0.02)" fill="#54c877"/>
    <path id="Path_7" data-name="Path 7" d="M76.559,0l-.573,43.963H100.8v2.163h2.737V32.384l-2.737-.127v2.99l-16.541-.254.254-26.785H95.582l-.127,4.517h-2.8l-.127,2.737h12.533V12.724H103.6L103.662,0Z" transform="translate(-10.265 0)" fill="#54c877"/>
    <path id="Path_8" data-name="Path 8" d="M124.074,8.609l10.816.063.637,27.167H123.566ZM115.866.147l-1.335,43.9h30.284L143.161.147Z" transform="translate(-15.471 -0.02)" fill="#54c877"/>
  </g>
  <g id="Group_1" data-name="Group 1" transform="translate(0 3.685)">
    <path id="Path_1-2" data-name="Path 1" d="M0,.074v14l2.736.127V8.6h5.79L8.334,41.3H5.79l-.127,2.735H20.041V41.3H16.605L16.414,8.727h5.917v5.344l2.737.127V.074Z" transform="translate(0 -0.01)" fill="#fff"/>
    <path id="Path_2-2" data-name="Path 2" d="M42.81,8.727l5.853.063L50.19,23.614l-9.1.254ZM33.584.074,33.457,2.81h2.291L29.449,41.3H26.9l-.127,2.735H41.155V41.3h-2.29l1.4-8.908,11.26-.254L52.861,41.3H50.126L50,44.037h14.57V41.3H61.7L55.979,2.81h2.864V.074Z" transform="translate(-3.617 -0.01)" fill="#fff"/>
    <path id="Path_3-2" data-name="Path 3" d="M74.722,0,74.15,43.963H98.962v2.163H101.7V32.384l-2.736-.127v2.99l-16.541-.254.253-26.785H93.745l-.126,4.517h-2.8l-.127,2.737h12.533V12.724h-1.463L101.825,0Z" transform="translate(-10.017 0)" fill="#fff"/>
    <path id="Path_4-2" data-name="Path 4" d="M122.239,8.609l10.815.063.637,27.167H121.73ZM114.031.147l-1.336,43.9H142.98L141.326.147Z" transform="translate(-15.224 -0.02)" fill="#fff"/>
  </g>
  <g id="Group_2" data-name="Group 2" transform="translate(150.315 3.685)">
    <path id="Path_5-2" data-name="Path 5" d="M.127.074.191,2.81H2.8L2.736,41.3H0l.063,2.735h22.65v-.063l1.145.063V28.258H21.123V35.7l-10.053-.19V2.81h3.5V.074Z" transform="translate(0 -0.01)" fill="#fff"/>
    <path id="Path_6-2" data-name="Path 6" d="M43.307,8.609l10.817.063.636,27.167H42.8ZM35.1.147l-1.335,43.9H64.047L62.394.147Z" transform="translate(-4.561 -0.02)" fill="#fff"/>
    <path id="Path_7-2" data-name="Path 7" d="M76.559,0l-.573,43.963H100.8v2.163h2.737V32.384l-2.737-.127v2.99l-16.541-.254.254-26.785H95.582l-.127,4.517h-2.8l-.127,2.737h12.533V12.724H103.6L103.662,0Z" transform="translate(-10.265 0)" fill="#fff"/>
    <path id="Path_8-2" data-name="Path 8" d="M124.074,8.609l10.816.063.637,27.167H123.566ZM115.866.147l-1.335,43.9h30.284L143.161.147Z" transform="translate(-15.471 -0.02)" fill="#fff"/>
  </g>
</svg>
