<?xml version="1.0" encoding="UTF-8"?><svg id="Layer_2" xmlns="http://www.w3.org/2000/svg" viewBox="0 0 375.81 460.24"><defs><style>.cls-1{fill:#32b6b2;}.cls-1,.cls-2,.cls-3,.cls-4,.cls-5,.cls-6,.cls-7{stroke-width:0px;}.cls-2{fill:#292929;}.cls-3{fill:#e22d5e;}.cls-4{fill:#e22d3f;}.cls-5{fill:#ee8b22;}.cls-6{fill:#fbb445;}.cls-7{fill:#fce1c1;}</style></defs><g id="Layer_1-2"><path class="cls-5" d="m187.91,460.24c14.41-.15,53.23-4.95,75.45-14.65,21.38-9.33,36.69-26.34,40.15-48.03l9.03-49.5c2.69-13.69,5.49-25.23,18.25-30.84,20.01-8.8,25.81-18.58,26.81-35.47.95-16.1-5.02-33.21,8-72.24C414.23,63.79,278.32,0,187.91,0S-38.42,63.79,10.22,209.52c13.02,39.03,7.05,56.14,8,72.24,1,16.89,6.8,26.66,26.81,35.47,12.77,5.62,15.57,17.16,18.25,30.84l9.03,49.5c3.45,21.69,18.76,38.7,40.15,48.03,22.22,9.7,61.04,14.5,75.45,14.65Z"/><path class="cls-7" d="m187.91,285.31c.34,0,.69.04,1.04.12,1.77.39,3.09,1.71,3.57,3.33l.09.32h0c.3,1.35.94,2.89,1.81,4.31.87,1.43,1.95,2.77,3.14,3.91,1.19,1.14,2.51,2.12,3.86,2.75,1.35.63,2.71.95,4.02.96.64.05,1.35-.11,1.93-.21.22-.1.5-.11.69-.24.1-.05.21-.1.32-.14.1-.06.18-.14.28-.2.4-.23.71-.62,1.05-1.03.29-.48.6-.99.81-1.64.92-2.56.77-6.12-.21-9.39-1.05-3.3-2.86-6.99-4.79-10.48-1.96-3.52-4.11-7-6.37-10.41-2.26-3.41-4.64-6.76-7.11-10.02-1.24-1.63-2.49-3.24-3.78-4.82l-.36-.43-.36.43c-1.28,1.58-2.54,3.19-3.78,4.82-2.47,3.26-4.85,6.61-7.11,10.02-2.26,3.41-4.41,6.89-6.37,10.41-1.94,3.49-3.75,7.18-4.79,10.48-.98,3.27-1.13,6.83-.21,9.39.21.64.52,1.16.81,1.64.35.4.66.8,1.05,1.03.1.06.18.14.28.2.11.04.22.09.32.14.19.14.46.14.69.24.58.09,1.28.26,1.93.21,1.31,0,2.67-.32,4.02-.96,1.35-.63,2.67-1.61,3.86-2.75,1.19-1.15,2.27-2.48,3.14-3.91.87-1.42,1.52-2.97,1.81-4.31h0s.09-.32.09-.32c.48-1.62,1.8-2.94,3.57-3.33.35-.08.69-.11,1.04-.12Zm0-35.9c.34.4.84.62,1.23.62.19,0,.35-.04.46-.1.05-.03.09-.06.12-.09l-.22.26-1.59,1.91-1.59-1.91-.22-.26s.07.06.12.09c.11.06.26.1.46.1.39,0,.89-.21,1.23-.62Zm0-9.6c1.03.36,2.23.91,3.34,1.69.55.38,1.07.82,1.54,1.27.23.22.45.45.66.68l.3.33c.73.8,1.48,1.6,2.18,2.42,1.42,1.63,2.81,3.29,4.17,4.96,2.74,3.34,5.31,6.79,7.76,10.34,2.46,3.55,4.82,7.18,7.04,10.99.55.95,1.1,1.93,1.62,2.9.51,1,1.02,2,1.51,3.02.47,1.06.98,2.05,1.41,3.18l.66,1.67.61,1.82c.74,2.46,1.21,5.04,1.31,7.74.09,2.7-.19,5.54-1.2,8.44-.49,1.45-1.24,2.9-2.18,4.29-1.02,1.37-2.22,2.69-3.73,3.7-1.46,1.08-3.18,1.74-4.86,2.17-1.6.33-3.07.55-4.64.49-3.09-.04-6.07-.86-8.63-2.11-2.59-1.23-4.67-3.03-6.5-4.89-.84-.89-1.63-1.81-2.36-2.77-.73.96-1.52,1.88-2.36,2.77-1.84,1.86-3.91,3.66-6.5,4.89-2.56,1.25-5.54,2.07-8.63,2.11-1.57.06-3.04-.16-4.64-.49-1.68-.43-3.4-1.09-4.86-2.17-1.51-1.01-2.71-2.34-3.73-3.7-.93-1.39-1.69-2.85-2.18-4.29-1.01-2.9-1.29-5.74-1.2-8.44.09-2.7.57-5.28,1.31-7.74l.61-1.82.66-1.67c.43-1.13.94-2.12,1.41-3.18.49-1.03,1-2.02,1.51-3.02.52-.98,1.07-1.95,1.62-2.9,2.22-3.8,4.58-7.44,7.04-10.99,2.45-3.55,5.02-7.01,7.76-10.34,1.36-1.67,2.75-3.33,4.17-4.96.7-.82,1.45-1.62,2.18-2.42l.3-.33c.21-.23.43-.46.66-.68.47-.45.98-.88,1.54-1.27,1.1-.78,2.31-1.32,3.34-1.69Zm4.7,51.28c-.37,2.82-1.32,5.27-2.5,7.56-.63,1.23-1.37,2.39-2.2,3.49-.83-1.1-1.57-2.26-2.2-3.49-1.17-2.29-2.13-4.75-2.5-7.56h9.39Z"/><path class="cls-7" d="m187.91,301.98c15.35,20.51,42.59,7.58,31.44-20.36-3.41-8.9-22.47-38.49-31.44-41.74-8.97,3.25-28.03,32.84-31.44,41.74-11.15,27.93,16.08,40.86,31.44,20.36Z"/><path class="cls-2" d="m187.91,407.84c3.46,4.19,8.56,6.85,14.25,6.85,6.82,0,12.79-3.84,16.1-9.55,2.77,2.27,6.2,3.63,9.93,3.63,6.4,0,11.96-3.98,14.71-9.78,2.33,1.84,5.19,2.94,8.28,2.94,6.12,0,11.33-4.26,13.31-10.2,2.05,1.79,4.65,2.87,7.47,2.87,6.62,0,12-5.87,12-13.09v-4.7c0-3.09-1.58-5.82-3.98-7.42,2.4-1.6,3.98-4.33,3.98-7.42v-9.51c0-7.22-5.38-13.09-12-13.09-3.57,0-6.76,1.72-8.96,4.42-2.54-4.18-6.89-6.95-11.82-6.95-3.96,0-7.55,1.79-10.12,4.66-3.04-4.08-7.67-6.7-12.87-6.7-4.18,0-8,1.71-10.91,4.5-3.44-4.85-8.92-8.02-15.11-8.02-5.68,0-10.79,2.66-14.25,6.85-3.46-4.19-8.56-6.85-14.25-6.85-6.19,0-11.67,3.16-15.11,8.02-2.92-2.79-6.73-4.5-10.91-4.5-5.19,0-9.83,2.62-12.87,6.7-2.57-2.87-6.16-4.66-10.12-4.66-4.93,0-9.28,2.77-11.82,6.95-2.2-2.7-5.4-4.42-8.96-4.42-6.62,0-12,5.87-12,13.09v9.51c0,3.09,1.58,5.82,3.98,7.42-2.4,1.6-3.98,4.33-3.98,7.42v4.7c0,7.22,5.38,13.09,12,13.09,2.83,0,5.42-1.08,7.47-2.87,1.98,5.94,7.19,10.2,13.31,10.2,3.09,0,5.95-1.1,8.28-2.94,2.75,5.8,8.31,9.78,14.71,9.78,3.73,0,7.16-1.36,9.93-3.63,3.31,5.71,9.28,9.55,16.1,9.55,5.68,0,10.79-2.66,14.25-6.85Z"/><path class="cls-6" d="m173.66,331.26c5.68,0,10.79,2.66,14.25,6.85,3.46-4.19,8.56-6.85,14.25-6.85h-28.49Zm28.49,0c6.19,0,11.67,3.16,15.11,8.02,2.92-2.79,6.73-4.5,10.91-4.5,5.19,0,9.83,2.62,12.87,6.7,2.57-2.87,6.16-4.66,10.12-4.66,4.93,0,9.28,2.77,11.82,6.95,2.2-2.7,5.4-4.42,8.96-4.42,6.62,0,12,5.87,12,13.09v9.51c0,3.09-1.58,5.82-3.98,7.42,2.4,1.6,3.98,4.33,3.98,7.42v4.7c0,7.22-5.38,13.09-12,13.09-2.83,0-5.42-1.08-7.47-2.87-1.98,5.94-7.19,10.2-13.31,10.2-3.09,0-5.95-1.1-8.28-2.94-2.75,5.8-8.31,9.78-14.71,9.78-3.73,0-7.16-1.36-9.93-3.63-3.31,5.71-9.28,9.55-16.1,9.55-5.68,0-10.79-2.66-14.25-6.85-3.46,4.19-8.56,6.85-14.25,6.85-6.82,0-12.79-3.84-16.1-9.55-2.77,2.27-6.2,3.63-9.93,3.63-6.4,0-11.96-3.98-14.71-9.78-2.33,1.84-5.19,2.94-8.28,2.94-6.12,0-11.33-4.26-13.31-10.2-2.05,1.79-4.65,2.87-7.47,2.87-6.62,0-12-5.87-12-13.09v-4.7c0-3.09,1.58-5.82,3.98-7.42-2.4-1.6-3.98-4.33-3.98-7.42v-9.51c0-7.22,5.38-13.09,12-13.09,3.57,0,6.76,1.72,8.96,4.42,2.54-4.18,6.89-6.95,11.82-6.95,3.96,0,7.55,1.79,10.12,4.66,3.04-4.08,7.67-6.7,12.87-6.7,4.18,0,8,1.71,10.91,4.5,3.44-4.85,8.92-8.02,15.11-8.02h28.49Zm-14.25,83.26c4.07,3.2,9.06,4.97,14.25,4.97,6.71,0,12.91-2.88,17.34-7.9,2.71,1.3,5.65,1.98,8.69,1.98,6.41,0,12.34-3.02,16.34-8.13,2.11.85,4.35,1.29,6.65,1.29,6.14,0,11.79-3.19,15.31-8.32,1.75.65,3.61.98,5.48.98,9.27,0,16.8-8.03,16.8-17.9v-4.7c0-2.67-.78-5.24-2.18-7.42,1.41-2.18,2.18-4.75,2.18-7.42v-9.51c0-9.87-7.54-17.9-16.8-17.9-2.97,0-5.86.84-8.38,2.4-3.4-3.15-7.77-4.93-12.4-4.93-3.5,0-6.84,1-9.75,2.87-3.73-3.17-8.36-4.92-13.24-4.92-3.61,0-7.12.98-10.24,2.81-4.31-4.02-9.94-6.33-15.79-6.33h0c-5.19,0-10.18,1.77-14.25,4.97-4.07-3.2-9.06-4.97-14.25-4.97h0c-5.84,0-11.48,2.3-15.79,6.33-3.12-1.83-6.64-2.81-10.24-2.81-4.88,0-9.51,1.75-13.24,4.92-2.91-1.88-6.25-2.87-9.75-2.87-4.63,0-9,1.78-12.4,4.93-2.52-1.55-5.41-2.4-8.38-2.4-9.27,0-16.8,8.03-16.8,17.9v9.51c0,2.67.78,5.24,2.18,7.42-1.41,2.18-2.18,4.75-2.18,7.42v4.7c0,9.87,7.54,17.9,16.8,17.9,1.87,0,3.72-.34,5.48-.98,3.51,5.13,9.17,8.32,15.31,8.32,2.3,0,4.54-.44,6.65-1.29,4,5.11,9.92,8.13,16.34,8.13,3.03,0,5.97-.68,8.69-1.98,4.43,5.01,10.63,7.9,17.34,7.9,5.19,0,10.18-1.77,14.25-4.97Z"/><path class="cls-7" d="m274.89,371.48c2.8,0,5.07,2.38,5.07,5.32v4.7c0,5.24-3.58,9.49-8,9.49s-8-4.25-8-9.49v-4.7c0-2.94,2.27-5.32,5.07-5.32h5.86Z"/><path class="cls-7" d="m254.97,373.88c3.19,0,5.77,2.69,5.77,6.01v6.56c0,6.23-4.29,11.27-9.57,11.27s-9.57-5.05-9.57-11.27v-6.68c0-3.26,2.54-5.9,5.67-5.9h7.71Z"/><path class="cls-7" d="m233.25,376.28c3.03,0,5.49,2.6,5.49,5.8v8.69c0,6.96-4.72,12.6-10.55,12.6s-10.55-5.64-10.55-12.6v-8.69c0-3.2,2.46-5.8,5.49-5.8h10.13Z"/><path class="cls-7" d="m207.15,377.48c4.18,0,7.57,3.46,7.57,7.74v9.67c0,7.62-5.63,13.8-12.57,13.8s-12.57-6.18-12.57-13.8v-9.67c0-4.27,3.39-7.74,7.57-7.74h10Z"/><path class="cls-7" d="m274.89,367.27c2.8,0,5.07-2.38,5.07-5.32v-9.51c0-5.24-3.58-9.49-8-9.49s-8,4.25-8,9.49v9.51c0,2.94,2.27,5.32,5.07,5.32h5.86Z"/><path class="cls-7" d="m255.08,369.67c3.13,0,5.67-2.64,5.67-5.9v-11.48c0-6.23-4.29-11.27-9.57-11.27s-9.57,5.05-9.57,11.27v11.48c0,3.26,2.54,5.9,5.67,5.9h7.82Z"/><path class="cls-7" d="m233.25,372.08c3.03,0,5.49-2.6,5.49-5.8v-13.49c0-6.96-4.72-12.6-10.55-12.6s-10.55,5.64-10.55,12.6v13.49c0,3.2,2.46,5.8,5.49,5.8h10.13Z"/><path class="cls-7" d="m207.15,373.28c4.18,0,7.57-3.46,7.57-7.74v-14.47c0-7.62-5.63-13.8-12.57-13.8s-12.57,6.18-12.57,13.8v14.47c0,4.27,3.39,7.74,7.57,7.74h10Z"/><path class="cls-7" d="m100.93,371.48c-2.8,0-5.07,2.38-5.07,5.32v4.7c0,5.24,3.58,9.49,8,9.49s8-4.25,8-9.49v-4.7c0-2.94-2.27-5.32-5.07-5.32h-5.86Z"/><path class="cls-7" d="m120.84,373.88c-3.19,0-5.77,2.69-5.77,6.01v6.56c0,6.23,4.29,11.27,9.57,11.27s9.57-5.05,9.57-11.27v-6.68c0-3.26-2.54-5.9-5.67-5.9h-7.71Z"/><path class="cls-7" d="m142.57,376.28c-3.03,0-5.49,2.6-5.49,5.8v8.69c0,6.96,4.72,12.6,10.55,12.6s10.55-5.64,10.55-12.6v-8.69c0-3.2-2.46-5.8-5.49-5.8h-10.13Z"/><path class="cls-7" d="m168.66,377.48c-4.18,0-7.57,3.46-7.57,7.74v9.67c0,7.62,5.63,13.8,12.57,13.8s12.57-6.18,12.57-13.8v-9.67c0-4.27-3.39-7.74-7.57-7.74h-10Z"/><path class="cls-7" d="m100.93,367.27c-2.8,0-5.07-2.38-5.07-5.32v-9.51c0-5.24,3.58-9.49,8-9.49s8,4.25,8,9.49v9.51c0,2.94-2.27,5.32-5.07,5.32h-5.86Z"/><path class="cls-7" d="m120.74,369.67c-3.13,0-5.67-2.64-5.67-5.9v-11.48c0-6.23,4.29-11.27,9.57-11.27s9.57,5.05,9.57,11.27v11.48c0,3.26-2.54,5.9-5.67,5.9h-7.82Z"/><path class="cls-7" d="m142.57,372.08c-3.03,0-5.49-2.6-5.49-5.8v-13.49c0-6.96,4.72-12.6,10.55-12.6s10.55,5.64,10.55,12.6v13.49c0,3.2-2.46,5.8-5.49,5.8h-10.13Z"/><path class="cls-7" d="m168.66,373.28c-4.18,0-7.57-3.46-7.57-7.74v-14.47c0-7.62,5.63-13.8,12.57-13.8s12.57,6.18,12.57,13.8v14.47c0,4.27-3.39,7.74-7.57,7.74h-10Z"/><path class="cls-3" d="m196.85,73.9c9.11-5.12,21.06-15.74,25.17-20.48,5.87-6.77,7.3-18.19,4.43-20.27s-13.29,2.8-17.91,10.48c-3.23,5.37-9.64,20.02-11.69,30.27Z"/><path class="cls-3" d="m178.96,73.9c-9.11-5.12-21.06-15.74-25.17-20.48-5.87-6.77-7.3-18.19-4.43-20.27,2.86-2.08,13.29,2.8,17.91,10.48,3.23,5.37,9.64,20.02,11.69,30.27Z"/><path class="cls-3" d="m202.38,81.51c10.38,1.21,26.29-.35,32.4-1.77,8.73-2.02,16.6-10.43,15.5-13.8-1.09-3.37-12.4-5.54-20.65-2.05-5.77,2.45-19.57,10.53-27.25,17.62Z"/><path class="cls-3" d="m173.43,81.51c-10.38,1.21-26.29-.35-32.4-1.77-8.73-2.02-16.6-10.43-15.5-13.8,1.09-3.37,12.4-5.54,20.65-2.05,5.77,2.45,19.57,10.53,27.25,17.62Z"/><path class="cls-3" d="m202.38,90.91c7.68,7.08,21.48,15.17,27.25,17.62,8.25,3.49,19.56,1.32,20.65-2.05,1.09-3.37-6.77-11.78-15.5-13.8-6.11-1.42-22.02-2.98-32.4-1.77Z"/><path class="cls-3" d="m173.43,90.91c-7.68,7.08-21.48,15.17-27.25,17.62-8.25,3.49-19.56,1.32-20.65-2.05-1.09-3.37,6.77-11.78,15.5-13.8,6.11-1.42,22.02-2.98,32.4-1.77Z"/><path class="cls-3" d="m196.85,98.52c2.05,10.25,8.46,24.9,11.69,30.27,4.62,7.68,15.05,12.56,17.91,10.48s1.44-13.51-4.43-20.27c-4.11-4.74-16.06-15.36-25.17-20.48Z"/><path class="cls-3" d="m178.96,98.52c-2.05,10.25-8.46,24.9-11.69,30.27-4.62,7.68-15.05,12.56-17.91,10.48-2.86-2.08-1.44-13.51,4.43-20.27,4.11-4.74,16.06-15.36,25.17-20.48Z"/><path class="cls-3" d="m187.91,151.8c3.54,0,9.11-10.08,8.33-19.01-.54-6.25-3.97-21.87-8.33-31.36-4.36,9.5-7.79,25.12-8.33,31.36-.77,8.93,4.79,19.01,8.33,19.01Z"/><path class="cls-3" d="m187.91,71c4.36-9.5,7.79-25.12,8.33-31.36.77-8.93-4.79-19.01-8.33-19.01s-9.11,10.08-8.33,19.01c.54,6.25,3.97,21.87,8.33,31.36Z"/><path class="cls-3" d="m187.91,449.66c.85-2.64,3.94-10.89,4.57-13.14,1.68-5.93-3.57-8.69-4.57-8.8-1,.11-6.25,2.87-4.57,8.8.63,2.25,3.72,10.5,4.57,13.14Z"/><path class="cls-3" d="m206.2,432.62c-.92-.41-6.85-.64-8.36,5.34-.58,2.27-2.03,10.95-2.61,13.67,2.06-1.86,8.85-7.46,10.53-9.09,4.42-4.3,1.25-9.32.44-9.91Z"/><path class="cls-3" d="m169.62,432.62c.92-.41,6.85-.64,8.36,5.34.58,2.27,2.03,10.95,2.61,13.67-2.06-1.86-8.85-7.46-10.53-9.09-4.42-4.3-1.25-9.32-.44-9.91Z"/><path class="cls-3" d="m209.68,446.45c-1.63,1.68-7.23,8.47-9.09,10.53,2.72-.58,11.4-2.03,13.67-2.61,5.98-1.51,5.74-7.44,5.34-8.36-.59-.81-5.61-3.98-9.91.44Z"/><path class="cls-3" d="m166.14,446.45c1.63,1.68,7.23,8.47,9.09,10.53-2.72-.58-11.4-2.03-13.67-2.61-5.98-1.51-5.74-7.44-5.34-8.36.59-.81,5.61-3.98,9.91.44Z"/><path class="cls-7" d="m209.53,19.65c2.84.92,5.2-.54,6.1-2.89.99-2.58-.25-5.31-3.13-6.25-2.89-.94-5.49.54-6.21,3.21-.65,2.43.4,5,3.24,5.92Z"/><path class="cls-7" d="m166.28,19.65c-2.84.92-5.2-.54-6.1-2.89-.99-2.58.25-5.31,3.13-6.25,2.89-.94,5.49.54,6.21,3.21.65,2.43-.4,5-3.24,5.92Z"/><path class="cls-7" d="m229.05,29.59c2.41,1.75,5.11,1.09,6.69-.86,1.74-2.15,1.41-5.13-1.05-6.91s-5.39-1.18-6.9,1.14c-1.37,2.11-1.16,4.88,1.25,6.63Z"/><path class="cls-7" d="m146.77,29.59c-2.41,1.75-5.11,1.09-6.69-.86-1.74-2.15-1.41-5.13,1.05-6.91s5.39-1.18,6.9,1.14c1.37,2.11,1.16,4.88-1.25,6.63Z"/><path class="cls-7" d="m244.53,45.07c1.75,2.41,4.52,2.62,6.63,1.25,2.32-1.51,2.92-4.44,1.14-6.9s-4.76-2.79-6.91-1.05c-1.95,1.58-2.61,4.28-.86,6.69Z"/><path class="cls-7" d="m131.28,45.07c-1.75,2.41-4.52,2.62-6.63,1.25-2.32-1.51-2.92-4.44-1.14-6.9s4.76-2.79,6.91-1.05c1.95,1.58,2.61,4.28.86,6.69Z"/><path class="cls-7" d="m254.47,64.58c.92,2.83,3.49,3.89,5.92,3.24,2.67-.72,4.15-3.32,3.21-6.21-.94-2.89-3.67-4.12-6.25-3.13-2.35.9-3.81,3.27-2.89,6.1Z"/><path class="cls-7" d="m121.34,64.58c-.92,2.83-3.49,3.89-5.92,3.24-2.67-.72-4.15-3.32-3.21-6.21.94-2.89,3.67-4.12,6.25-3.13,2.35.9,3.81,3.27,2.89,6.1Z"/><path class="cls-7" d="m257.9,86.21c0,2.98,2.12,4.78,4.63,4.91,2.76.15,4.97-1.87,4.97-4.91s-2.21-5.06-4.97-4.91c-2.51.13-4.63,1.93-4.63,4.91Z"/><path class="cls-7" d="m117.91,86.21c0,2.98-2.12,4.78-4.63,4.91-2.76.15-4.97-1.87-4.97-4.91s2.21-5.06,4.97-4.91c2.51.13,4.63,1.93,4.63,4.91Z"/><path class="cls-7" d="m254.47,107.84c-.92,2.83.54,5.2,2.89,6.1,2.58.99,5.31-.25,6.25-3.13.94-2.89-.54-5.49-3.21-6.21-2.43-.65-5,.4-5.92,3.24Z"/><path class="cls-7" d="m121.34,107.84c.92,2.83-.54,5.2-2.89,6.1-2.58.99-5.31-.25-6.25-3.13-.94-2.89.54-5.49,3.21-6.21,2.43-.65,5,.4,5.92,3.24Z"/><path class="cls-7" d="m244.53,127.35c-1.75,2.41-1.09,5.11.86,6.69,2.15,1.74,5.13,1.41,6.91-1.05,1.78-2.46,1.18-5.39-1.14-6.9-2.11-1.37-4.88-1.16-6.63,1.25Z"/><path class="cls-7" d="m131.28,127.35c1.75,2.41,1.09,5.11-.86,6.69-2.15,1.74-5.13,1.41-6.91-1.05-1.78-2.46-1.18-5.39,1.14-6.9,2.11-1.37,4.88-1.16,6.63,1.25Z"/><path class="cls-7" d="m229.05,142.84c-2.41,1.75-2.62,4.52-1.25,6.63,1.51,2.32,4.44,2.92,6.9,1.14s2.79-4.76,1.05-6.91c-1.58-1.95-4.28-2.61-6.69-.86Z"/><path class="cls-7" d="m146.77,142.84c2.41,1.75,2.62,4.52,1.25,6.63-1.51,2.32-4.44,2.92-6.9,1.14s-2.79-4.76-1.05-6.91c1.58-1.95,4.28-2.61,6.69-.86Z"/><path class="cls-7" d="m209.53,152.78c-2.83.92-3.89,3.49-3.24,5.92.72,2.67,3.32,4.15,6.21,3.21s4.12-3.67,3.13-6.25c-.9-2.35-3.27-3.81-6.1-2.89Z"/><path class="cls-7" d="m166.28,152.78c2.83.92,3.89,3.49,3.24,5.92-.72,2.67-3.32,4.15-6.21,3.21s-4.12-3.67-3.13-6.25c.9-2.35,3.27-3.81,6.1-2.89Z"/><path class="cls-7" d="m187.91,165.81c3.04,0,5.06-2.21,4.91-4.97-.13-2.51-1.93-4.63-4.91-4.63s-4.78,2.12-4.91,4.63c-.15,2.76,1.87,4.97,4.91,4.97Z"/><path class="cls-7" d="m187.91,16.22c2.98,0,4.78-2.12,4.91-4.63.15-2.76-1.87-4.97-4.91-4.97s-5.06,2.21-4.91,4.97c.13,2.51,1.93,4.63,4.91,4.63Z"/><ellipse class="cls-1" cx="187.91" cy="86.21" rx="11.01" ry="11.2"/><path class="cls-1" d="m187.91,460.24c2.68-.03,6.21-.22,10.32-.57-1.54-4.24-5.57-7.29-10.32-7.37-4.75.08-8.78,3.13-10.32,7.37,4.11.35,7.64.54,10.32.57Z"/><ellipse class="cls-1" cx="275.86" cy="218.43" rx="48.91" ry="51.01"/><ellipse class="cls-2" cx="275.86" cy="218.43" rx="42.62" ry="44.46"/><path class="cls-3" d="m287.18,167.59c1.48-2.38,5.99-7.75,7.16-9.81,3.09-5.42,1.14-12.82-1.16-13.46,0,0-.02,0-.02,0,0,0-.02,0-.02,0-2.3-.64-7.54,4.75-7.46,11.05.03,2.4,1.36,9.4,1.5,12.23Z"/><path class="cls-3" d="m299.41,172.38c2.02-1.9,7.71-5.87,9.35-7.54,4.33-4.4,4.28-12.07,2.22-13.31,0,0-.01,0-.02-.01,0,0-.01,0-.02-.01-2.06-1.24-8.46,2.55-9.94,8.66-.57,2.32-1.02,9.45-1.59,12.22Z"/><path class="cls-3" d="m310.04,180.31c2.42-1.29,8.9-3.59,10.91-4.76,5.28-3.08,7.13-10.51,5.45-12.26,0,0-.01-.01-.02-.02,0,0-.01-.01-.02-.02-1.68-1.76-8.8.18-11.76,5.68-1.12,2.09-3.33,8.85-4.56,11.38Z"/><path class="cls-3" d="m318.33,190.83c2.66-.59,9.49-1.06,11.72-1.65,5.86-1.55,9.5-8.22,8.3-10.37,0,0,0-.02-.01-.02,0,0,0-.02-.01-.02-1.19-2.15-8.55-2.2-12.76,2.32-1.6,1.72-5.41,7.65-7.23,9.76Z"/><path class="cls-3" d="m323.73,203.24c2.72.14,9.43,1.53,11.73,1.57,6.05.09,11.21-5.38,10.6-7.78,0,0,0-.02,0-.03,0,0,0-.02,0-.03-.62-2.4-7.71-4.44-12.9-1.21-1.97,1.22-7.12,5.93-9.41,7.47Z"/><path class="cls-3" d="m325.87,216.68c2.59.87,8.73,4.03,10.94,4.68,5.82,1.72,12.16-2.17,12.16-4.65,0,0,0-.02,0-.03,0,0,0-.02,0-.03,0-2.48-6.35-6.37-12.16-4.65-2.21.65-8.35,3.8-10.94,4.68Z"/><path class="cls-3" d="m324.6,230.24c2.29,1.54,7.43,6.25,9.41,7.47,5.19,3.23,12.29,1.19,12.9-1.21,0,0,0-.02,0-.03,0,0,0-.02,0-.03.62-2.4-4.55-7.86-10.6-7.78-2.3.03-9.01,1.42-11.73,1.57Z"/><path class="cls-3" d="m320.01,243c1.82,2.11,5.63,8.04,7.23,9.76,4.22,4.52,11.57,4.47,12.76,2.32,0,0,0-.02.01-.02,0,0,0-.02.01-.02,1.19-2.15-2.44-8.82-8.3-10.37-2.23-.59-9.06-1.06-11.72-1.65Z"/><path class="cls-3" d="m312.41,254.08c1.24,2.53,3.44,9.29,4.56,11.38,2.95,5.5,10.07,7.44,11.76,5.68,0,0,.01-.01.02-.02,0,0,.01-.01.02-.02,1.68-1.76-.17-9.18-5.45-12.26-2-1.17-8.48-3.47-10.91-4.76Z"/><path class="cls-3" d="m302.31,262.73c.57,2.78,1.02,9.9,1.59,12.22,1.49,6.11,7.88,9.9,9.94,8.66,0,0,.01,0,.02-.01,0,0,.01,0,.02-.01,2.06-1.24,2.11-8.92-2.22-13.31-1.64-1.67-7.33-5.64-9.35-7.54Z"/><path class="cls-3" d="m290.42,268.37c-.14,2.84-1.47,9.84-1.5,12.23-.08,6.31,5.16,11.69,7.46,11.05,0,0,.02,0,.02,0,0,0,.02,0,.02,0,2.3-.64,4.25-8.04,1.16-13.46-1.17-2.06-5.68-7.43-7.16-9.81Z"/><path class="cls-3" d="m277.53,270.59c-.84,2.7-3.86,9.11-4.49,11.41-1.64,6.07,2.08,12.69,4.46,12.69,0,0,.02,0,.03,0,0,0,.02,0,.03,0,2.38,0,6.1-6.62,4.46-12.69-.62-2.31-3.65-8.71-4.49-11.41Z"/><path class="cls-3" d="m264.53,269.27c-1.48,2.38-5.99,7.75-7.16,9.81-3.09,5.42-1.14,12.82,1.16,13.46,0,0,.02,0,.02,0,0,0,.02,0,.02,0,2.3.64,7.54-4.75,7.46-11.05-.03-2.4-1.36-9.4-1.5-12.23Z"/><path class="cls-3" d="m252.31,264.48c-2.02,1.9-7.71,5.87-9.35,7.54-4.33,4.4-4.28,12.07-2.22,13.31,0,0,.01,0,.02.01,0,0,.01,0,.02.01,2.06,1.24,8.46-2.55,9.94-8.66.57-2.32,1.02-9.45,1.59-12.22Z"/><path class="cls-3" d="m241.68,256.55c-2.42,1.29-8.9,3.59-10.91,4.76-5.28,3.08-7.13,10.51-5.45,12.26,0,0,.01.01.02.02,0,0,.01.01.02.02,1.68,1.76,8.8-.18,11.76-5.68,1.12-2.09,3.33-8.85,4.56-11.38Z"/><path class="cls-3" d="m233.39,246.03c-2.66.59-9.49,1.06-11.72,1.65-5.86,1.55-9.5,8.22-8.3,10.37,0,0,0,.02.01.02,0,0,0,.02.01.02,1.19,2.15,8.55,2.2,12.76-2.32,1.6-1.72,5.41-7.65,7.23-9.76Z"/><path class="cls-3" d="m227.99,233.62c-2.72-.14-9.43-1.53-11.73-1.57-6.05-.09-11.21,5.38-10.6,7.78,0,0,0,.02,0,.03,0,0,0,.02,0,.03.62,2.4,7.71,4.44,12.9,1.21,1.97-1.22,7.12-5.93,9.41-7.47Z"/><path class="cls-3" d="m225.85,220.18c-2.59-.87-8.73-4.03-10.94-4.68-5.82-1.72-12.16,2.17-12.16,4.65,0,0,0,.02,0,.03,0,0,0,.02,0,.03,0,2.48,6.35,6.37,12.16,4.65,2.21-.65,8.35-3.8,10.94-4.68Z"/><path class="cls-3" d="m227.12,206.62c-2.29-1.54-7.43-6.25-9.41-7.47-5.19-3.23-12.29-1.19-12.9,1.21,0,0,0,.02,0,.03,0,0,0,.02,0,.03-.62,2.4,4.55,7.86,10.6,7.78,2.3-.03,9.01-1.42,11.73-1.57Z"/><path class="cls-3" d="m231.71,193.86c-1.82-2.11-5.63-8.04-7.23-9.76-4.22-4.52-11.57-4.47-12.76-2.32,0,0,0,.02-.01.02,0,0,0,.02-.01.02-1.19,2.15,2.44,8.82,8.3,10.37,2.23.59,9.06,1.06,11.72,1.65Z"/><path class="cls-3" d="m239.31,182.78c-1.24-2.53-3.44-9.29-4.56-11.38-2.95-5.5-10.07-7.44-11.76-5.68,0,0-.01.01-.02.02,0,0-.01.01-.02.02-1.68,1.76.17,9.18,5.45,12.26,2,1.17,8.48,3.47,10.91,4.76Z"/><path class="cls-3" d="m249.4,174.13c-.57-2.78-1.02-9.9-1.59-12.22-1.49-6.11-7.88-9.9-9.94-8.66,0,0-.01,0-.02.01,0,0-.01,0-.02.01-2.06,1.24-2.11,8.92,2.22,13.31,1.64,1.67,7.33,5.64,9.35,7.54Z"/><path class="cls-3" d="m261.3,168.5c.14-2.84,1.47-9.84,1.5-12.23.08-6.31-5.16-11.69-7.46-11.05,0,0-.02,0-.02,0,0,0-.02,0-.02,0-2.3.64-4.25,8.04-1.16,13.46,1.17,2.06,5.68,7.43,7.16,9.81Z"/><path class="cls-3" d="m274.18,166.27c.84-2.7,3.86-9.11,4.49-11.41,1.64-6.07-2.08-12.69-4.46-12.69,0,0-.02,0-.03,0,0,0-.02,0-.03,0-2.38,0-6.1,6.62-4.46,12.69.62,2.31,3.65,8.71,4.49,11.41Z"/><path class="cls-4" d="m283.28,210.52c4.98-8.48,17.14-30.01-7.59-30.03-24.43-.02-11.98,20.99-7.41,30.19-8.13-5.19-28.77-17.88-28.79,7.92-.02,25.49,20.12,12.5,28.94,7.73-4.97,8.48-17.14,30.01,7.59,30.03,24.43.02,11.98-20.99,7.41-30.19,8.13,5.19,28.77,17.88,28.79-7.92.02-25.49-20.12-12.5-28.94-7.73Z"/><ellipse class="cls-7" cx="275.86" cy="218.43" rx="10.55" ry="11"/><ellipse class="cls-1" cx="99.95" cy="218.43" rx="48.91" ry="51.01"/><ellipse class="cls-2" cx="99.95" cy="218.43" rx="42.62" ry="44.46"/><path class="cls-3" d="m88.63,167.59c-1.48-2.38-5.99-7.75-7.16-9.81-3.09-5.42-1.14-12.82,1.16-13.46,0,0,.02,0,.02,0,0,0,.02,0,.02,0,2.3-.64,7.54,4.75,7.46,11.05-.03,2.4-1.36,9.4-1.5,12.23Z"/><path class="cls-3" d="m76.4,172.38c-2.02-1.9-7.71-5.87-9.35-7.54-4.33-4.4-4.28-12.07-2.22-13.31,0,0,.01,0,.02-.01,0,0,.01,0,.02-.01,2.06-1.24,8.46,2.55,9.94,8.66.57,2.32,1.02,9.45,1.59,12.22Z"/><path class="cls-3" d="m65.78,180.31c-2.42-1.29-8.9-3.59-10.91-4.76-5.28-3.08-7.13-10.51-5.45-12.26,0,0,.01-.01.02-.02,0,0,.01-.01.02-.02,1.68-1.76,8.8.18,11.76,5.68,1.12,2.09,3.33,8.85,4.56,11.38Z"/><path class="cls-3" d="m57.48,190.83c-2.66-.59-9.49-1.06-11.72-1.65-5.86-1.55-9.5-8.22-8.3-10.37,0,0,0-.02.01-.02,0,0,0-.02.01-.02,1.19-2.15,8.55-2.2,12.76,2.32,1.6,1.72,5.41,7.65,7.23,9.76Z"/><path class="cls-3" d="m52.08,203.24c-2.72.14-9.43,1.53-11.73,1.57-6.05.09-11.21-5.38-10.6-7.78,0,0,0-.02,0-.03,0,0,0-.02,0-.03.62-2.4,7.71-4.44,12.9-1.21,1.97,1.22,7.12,5.93,9.41,7.47Z"/><path class="cls-3" d="m49.94,216.68c-2.59.87-8.73,4.03-10.94,4.68-5.82,1.72-12.16-2.17-12.16-4.65,0,0,0-.02,0-.03,0,0,0-.02,0-.03,0-2.48,6.35-6.37,12.16-4.65,2.21.65,8.35,3.8,10.94,4.68Z"/><path class="cls-3" d="m51.21,230.24c-2.29,1.54-7.43,6.25-9.41,7.47-5.19,3.23-12.29,1.19-12.9-1.21,0,0,0-.02,0-.03,0,0,0-.02,0-.03-.62-2.4,4.55-7.86,10.6-7.78,2.3.03,9.01,1.42,11.73,1.57Z"/><path class="cls-3" d="m55.81,243c-1.82,2.11-5.63,8.04-7.23,9.76-4.22,4.52-11.57,4.47-12.76,2.32,0,0,0-.02-.01-.02,0,0,0-.02-.01-.02-1.19-2.15,2.44-8.82,8.3-10.37,2.23-.59,9.05-1.06,11.72-1.65Z"/><path class="cls-3" d="m63.41,254.08c-1.24,2.53-3.44,9.29-4.56,11.38-2.95,5.5-10.07,7.44-11.76,5.68,0,0-.01-.01-.02-.02,0,0-.01-.01-.02-.02-1.68-1.76.17-9.18,5.45-12.26,2-1.17,8.48-3.47,10.91-4.76Z"/><path class="cls-3" d="m73.5,262.73c-.57,2.78-1.02,9.9-1.59,12.22-1.49,6.11-7.88,9.9-9.94,8.66,0,0-.01,0-.02-.01,0,0-.01,0-.02-.01-2.06-1.24-2.11-8.92,2.22-13.31,1.64-1.67,7.33-5.64,9.35-7.54Z"/><path class="cls-3" d="m85.39,268.37c.14,2.84,1.47,9.84,1.5,12.23.08,6.31-5.16,11.69-7.46,11.05,0,0-.02,0-.02,0,0,0-.02,0-.02,0-2.3-.64-4.25-8.04-1.16-13.46,1.17-2.06,5.68-7.43,7.16-9.81Z"/><path class="cls-3" d="m98.28,270.59c.84,2.7,3.86,9.11,4.49,11.41,1.64,6.07-2.08,12.69-4.46,12.69,0,0-.02,0-.03,0,0,0-.02,0-.03,0-2.38,0-6.1-6.62-4.46-12.69.62-2.31,3.65-8.71,4.49-11.41Z"/><path class="cls-3" d="m111.28,269.27c1.48,2.38,5.99,7.75,7.16,9.81,3.09,5.42,1.14,12.82-1.16,13.46,0,0-.02,0-.02,0,0,0-.02,0-.02,0-2.3.64-7.54-4.75-7.46-11.05.03-2.4,1.36-9.4,1.5-12.23Z"/><path class="cls-3" d="m123.51,264.48c2.02,1.9,7.71,5.87,9.35,7.54,4.33,4.4,4.28,12.07,2.22,13.31,0,0-.01,0-.02.01,0,0-.01,0-.02.01-2.06,1.24-8.46-2.55-9.94-8.66-.57-2.32-1.02-9.45-1.59-12.22Z"/><path class="cls-3" d="m134.13,256.55c2.42,1.29,8.9,3.59,10.91,4.76,5.28,3.08,7.13,10.51,5.45,12.26,0,0-.01.01-.02.02,0,0-.01.01-.02.02-1.68,1.76-8.8-.18-11.76-5.68-1.12-2.09-3.33-8.85-4.56-11.38Z"/><path class="cls-3" d="m142.42,246.03c2.66.59,9.49,1.06,11.72,1.65,5.86,1.55,9.5,8.22,8.3,10.37,0,0,0,.02-.01.02,0,0,0,.02-.01.02-1.19,2.15-8.55,2.2-12.76-2.32-1.6-1.72-5.41-7.65-7.23-9.76Z"/><path class="cls-3" d="m147.82,233.62c2.72-.14,9.43-1.53,11.73-1.57,6.05-.09,11.21,5.38,10.6,7.78,0,0,0,.02,0,.03,0,0,0,.02,0,.03-.62,2.4-7.71,4.44-12.9,1.21-1.97-1.22-7.12-5.93-9.41-7.47Z"/><path class="cls-3" d="m149.96,220.18c2.59-.87,8.73-4.03,10.94-4.68,5.82-1.72,12.16,2.17,12.16,4.65,0,0,0,.02,0,.03,0,0,0,.02,0,.03,0,2.48-6.35,6.37-12.16,4.65-2.21-.65-8.35-3.8-10.94-4.68Z"/><path class="cls-3" d="m148.69,206.62c2.29-1.54,7.43-6.25,9.41-7.47,5.19-3.23,12.29-1.19,12.9,1.21,0,0,0,.02,0,.03,0,0,0,.02,0,.03.62,2.4-4.55,7.86-10.6,7.78-2.3-.03-9.01-1.42-11.73-1.57Z"/><path class="cls-3" d="m144.1,193.86c1.82-2.11,5.63-8.04,7.23-9.76,4.22-4.52,11.57-4.47,12.76-2.32,0,0,0,.02.01.02,0,0,0,.02.01.02,1.19,2.15-2.44,8.82-8.3,10.37-2.23.59-9.06,1.06-11.72,1.65Z"/><path class="cls-3" d="m136.5,182.78c1.24-2.53,3.44-9.29,4.56-11.38,2.95-5.5,10.07-7.44,11.76-5.68,0,0,.01.01.02.02,0,0,.01.01.02.02,1.68,1.76-.17,9.18-5.45,12.26-2,1.17-8.48,3.47-10.91,4.76Z"/><path class="cls-3" d="m126.41,174.13c.57-2.78,1.02-9.9,1.59-12.22,1.49-6.11,7.88-9.9,9.94-8.66,0,0,.01,0,.02.01,0,0,.01,0,.02.01,2.06,1.24,2.11,8.92-2.22,13.31-1.64,1.67-7.33,5.64-9.35,7.54Z"/><path class="cls-3" d="m114.51,168.5c-.14-2.84-1.47-9.84-1.5-12.23-.08-6.31,5.16-11.69,7.46-11.05,0,0,.02,0,.02,0,0,0,.02,0,.02,0,2.3.64,4.25,8.04,1.16,13.46-1.17,2.06-5.68,7.43-7.16,9.81Z"/><path class="cls-3" d="m101.63,166.27c-.84-2.7-3.86-9.11-4.49-11.41-1.64-6.07,2.08-12.69,4.46-12.69,0,0,.02,0,.03,0,0,0,.02,0,.03,0,2.38,0,6.1,6.62,4.46,12.69-.62,2.31-3.65,8.71-4.49,11.41Z"/><path class="cls-4" d="m92.53,210.52c-4.97-8.48-17.14-30.01,7.59-30.03,24.43-.02,11.98,20.99,7.41,30.19,8.13-5.19,28.77-17.88,28.79,7.92.02,25.49-20.12,12.5-28.94,7.73,4.97,8.48,17.14,30.01-7.59,30.03-24.43.02-11.98-20.99-7.41-30.19-8.13,5.19-28.77,17.88-28.79-7.92-.02-25.49,20.12-12.5,28.94-7.73Z"/><ellipse class="cls-7" cx="99.95" cy="218.43" rx="10.55" ry="11"/><path class="cls-6" d="m353.39,104.75c-24.24-12.91-59.42,5.12-81.84,21.21,15.36-20,28.09-48.22,19.81-73.04-4.71-13.75-16.75-22.14-24.3-26.09,12.15,16.32,13.94,37.83,12.01,58.1-1.97,19.94-7.71,36.83-23.93,55.63,15.56-7.71,38.97-9.29,60.64-.25,22.12,9.26,34.01,24.46,37.01,45.07,7.6-35.82-14.61-57.43-50.17-58.75-9.72-.36-20.22.42-29.41,3.46,20.31-10.5,53.12-21.86,74.22-13.99,10.66,3.88,18.32,10.85,23.78,21.26-.35-9.35-2.4-24.41-17.81-32.62Z"/><path class="cls-6" d="m22.42,104.75c24.24-12.91,59.42,5.12,81.84,21.21-15.36-20-28.09-48.22-19.81-73.04,4.71-13.75,16.75-22.14,24.3-26.09-12.15,16.32-13.94,37.83-12.01,58.1,1.97,19.94,7.71,36.83,23.93,55.63-15.56-7.71-38.97-9.29-60.64-.25-22.12,9.26-34.01,24.46-37.01,45.07-7.6-35.82,14.61-57.43,50.17-58.75,9.72-.36,20.22.42,29.41,3.46-20.31-10.5-53.12-21.86-74.22-13.99-10.66,3.88-18.32,10.85-23.78,21.26.35-9.35,2.4-24.41,17.81-32.62Z"/><path class="cls-6" d="m270.75,303.45c16.96,3.75,46.24,3.88,65.67-15.7,5.35-5.27,9.48-12.15,13.57-19.72.3,4.3-.12,8.66-1.19,12.94-8.39,33.06-47.3,37.7-78.05,22.48Z"/><path class="cls-6" d="m105.06,303.45c-16.96,3.75-46.24,3.88-65.67-15.7-5.35-5.27-9.48-12.15-13.57-19.72-.3,4.3.12,8.66,1.19,12.94,8.39,33.06,47.3,37.7,78.05,22.48Z"/><path class="cls-6" d="m232.93,289.64c2.4,12.61,12.16,17.31,17.86,19.51,6.6,2.55,39.77,1.2,49.44,18.54,2.37,3.6,3.57,7.78,3.53,11.78-10.69-18.6-29.17-14.69-49.52-21.58-16.08-5.46-23.1-19.5-21.31-28.24Z"/><path class="cls-6" d="m142.88,289.64c-2.4,12.61-12.16,17.31-17.86,19.51-6.6,2.55-39.77,1.2-49.44,18.54-2.37,3.6-3.57,7.78-3.53,11.78,10.69-18.6,29.17-14.69,49.52-21.58,16.08-5.46,23.1-19.5,21.31-28.24Z"/><path class="cls-2" d="m187.91,244.61c9.6,10.68,22.41,29.43,26.49,40.59,3.41,9.35,1.17,18.7-6.08,20.33-10.01,2.25-18.81-7.94-20.41-15.44-1.6,7.51-10.41,17.69-20.41,15.44-7.25-1.63-9.49-10.98-6.08-20.33,4.07-11.16,16.88-29.9,26.49-40.59Z"/><path class="cls-3" d="m243.59,429.06s0,.01,0,.02c0,0,0,.01,0,.02-.82,2.08,3.44,7.54,9.1,8.11,2.15.22,13.82,1.77,16.38,1.93-1.98-1.63-11.56-8.47-13.28-9.78-4.52-3.45-11.36-2.39-12.19-.3Z"/><path class="cls-3" d="m252.32,442.91c-5.69-.13-10.6,4.75-10.04,6.92,0,0,0,.02,0,.02v.02c.2.74,1.12,1.45,2.43,1.95,6.8-1.79,13.22-3.86,18.64-6.23,1.84-.8,3.63-1.67,5.38-2.58-2.69-.15-14.27-.06-16.41-.11Z"/><path class="cls-3" d="m259.41,424.96c1.61,1.44,10.14,9.56,12.11,11.19-.64-2.48-4.37-13.65-4.99-15.72-1.63-5.45-7.79-8.61-9.68-7.41,0,0-.01,0-.02.01,0,0-.01,0-.02.01-1.89,1.2-1.64,8.12,2.6,11.91Z"/><path class="cls-3" d="m280.48,419.53c1.88-5.37-1.24-11.54-3.48-11.68,0,0-.02,0-.02,0,0,0-.02,0-.02,0-2.24-.14-6.1,5.6-4.9,11.16.46,2.11,2.59,13.69,3.22,16.17.94-2.38,4.49-13.61,5.2-15.65Z"/><path class="cls-3" d="m296.93,416.49c-.13-.42-.32-.77-.57-.98,0,0-.01-.01-.02-.01,0,0-.01-.01-.02-.02-1.73-1.43-8.23.94-10.52,6.15-.87,1.98-5.96,12.6-6.9,14.98.17-.11.4-.26.66-.44,7.22-5.48,13.14-12.1,17.38-19.68Z"/><path class="cls-3" d="m132.22,429.06s0,.01,0,.02c0,0,0,.01,0,.02.82,2.08-3.44,7.54-9.1,8.11-2.15.22-13.82,1.77-16.38,1.93,1.98-1.63,11.56-8.47,13.28-9.78,4.52-3.45,11.36-2.39,12.19-.3Z"/><path class="cls-3" d="m123.49,442.91c5.69-.13,10.6,4.75,10.04,6.92,0,0,0,.02,0,.02v.02c-.2.74-1.12,1.45-2.43,1.95-6.8-1.79-13.22-3.86-18.64-6.23-1.84-.8-3.63-1.67-5.38-2.58,2.69-.15,14.27-.06,16.41-.11Z"/><path class="cls-3" d="m116.4,424.96c-1.61,1.44-10.14,9.56-12.11,11.19.64-2.48,4.37-13.65,4.99-15.72,1.63-5.45,7.79-8.61,9.68-7.41,0,0,.01,0,.02.01,0,0,.01,0,.02.01,1.89,1.2,1.64,8.12-2.6,11.91Z"/><path class="cls-3" d="m95.33,419.53c-1.88-5.37,1.24-11.54,3.48-11.68,0,0,.02,0,.02,0,0,0,.02,0,.02,0,2.24-.14,6.1,5.6,4.9,11.16-.46,2.11-2.59,13.69-3.22,16.17-.94-2.38-4.49-13.61-5.2-15.65Z"/><path class="cls-3" d="m78.88,416.49c.13-.42.32-.77.57-.98,0,0,.01-.01.02-.01,0,0,.01-.01.02-.02,1.73-1.43,8.23.94,10.52,6.15.87,1.98,5.96,12.6,6.9,14.98-.17-.11-.4-.26-.66-.44-7.22-5.48-13.14-12.1-17.38-19.68Z"/><path class="cls-6" d="m321.62,51.17s-3.46,11.78-7.95,21.16c-8.55,17.86-23.56,34.97-23.56,34.97,0,0,31.37-19.51,36.67-30.37,5.74-11.76-5.15-25.76-5.15-25.76Z"/><path class="cls-6" d="m54.19,51.17s3.46,11.78,7.95,21.16c8.55,17.86,23.56,34.97,23.56,34.97,0,0-31.37-19.51-36.67-30.37-5.74-11.76,5.15-25.76,5.15-25.76Z"/></g></svg>